<svg width="72.802734" height="54.589844" viewBox="0 0 72.8027 54.5898" fill="none" xmlns="http://www.w3.org/2000/svg" xmlns:xlink="http://www.w3.org/1999/xlink">
	<desc>
			Created with Pixso.
	</desc>
	<defs/>
	<path id="“" d="M65.45 1.81Q62.24 0 58 -7.63e-6Q53.87 -7.63e-6 50.78 1.79Q49.08 2.77 47.7 4.29Q46.46 5.65 45.62 7.23Q43.79 10.62 43.79 14.99Q43.79 18.4 45.99 22.07Q47.7 24.95 50.14 26.91Q50.84 27.48 51.61 27.97L57.22 32.17Q57.05 32.59 56.87 32.99Q54.48 38.34 50.48 42.96Q46.19 47.99 41.21 51.22L43.21 54.58Q54.24 48.98 62.39 40.59Q63.27 39.69 64.11 38.76Q68.37 34.07 70.55 28.54Q72.8 22.82 72.8 16.21Q72.8 9.79 69.73 5.64Q69.25 4.98 68.7 4.39Q67.23 2.82 65.45 1.81ZM24.24 1.81Q21.03 -7.63e-6 16.79 -7.63e-6Q12.66 -7.63e-6 9.57 1.79Q7.87 2.77 6.49 4.29Q5.25 5.65 4.4 7.23Q2.58 10.62 2.58 14.99Q2.58 18.4 4.78 22.07Q6.49 24.95 8.93 26.91Q9.63 27.48 10.4 27.97L16.01 32.17Q15.84 32.59 15.65 32.99Q13.26 38.34 9.27 42.96Q4.98 47.99 -1.53e-5 51.22L2 54.58Q13.02 48.98 21.18 40.59Q22.06 39.69 22.9 38.76Q27.16 34.07 29.34 28.54Q31.59 22.82 31.59 16.21Q31.59 9.79 28.52 5.64Q28.04 4.98 27.49 4.39Q26.02 2.82 24.24 1.81Z" fill="#CDA274" fill-opacity="1.000000" fill-rule="evenodd"/>
</svg>
